<mxfile host="65bd71144e">
    <diagram id="xhpaAqn9Cxa-EPYrbFXT" name="grades_converter_diagrams">
        <mxGraphModel dx="445" dy="912" grid="1" gridSize="10" guides="1" tooltips="1" connect="1" arrows="1" fold="1" page="1" pageScale="1" pageWidth="850" pageHeight="1100" math="0" shadow="0">
            <root>
                <mxCell id="0"/>
                <mxCell id="1" parent="0"/>
                <mxCell id="78" value="" style="rounded=0;whiteSpace=wrap;html=1;" parent="1" vertex="1">
                    <mxGeometry x="108" y="390" width="635" height="250" as="geometry"/>
                </mxCell>
                <mxCell id="5" value="" style="edgeStyle=none;html=1;entryX=0.5;entryY=0;entryDx=0;entryDy=0;" parent="1" source="2" target="18" edge="1">
                    <mxGeometry relative="1" as="geometry">
                        <mxPoint x="428" y="210" as="targetPoint"/>
                    </mxGeometry>
                </mxCell>
                <mxCell id="2" value="start" style="ellipse;whiteSpace=wrap;html=1;" parent="1" vertex="1">
                    <mxGeometry x="394" y="130" width="68" height="50" as="geometry"/>
                </mxCell>
                <mxCell id="12" value="end" style="ellipse;whiteSpace=wrap;html=1;" parent="1" vertex="1">
                    <mxGeometry x="394" y="750" width="68" height="50" as="geometry"/>
                </mxCell>
                <mxCell id="14" value="Diagrama de flujo" style="shape=note;whiteSpace=wrap;html=1;backgroundOutline=1;darkOpacity=0.05;" parent="1" vertex="1">
                    <mxGeometry x="108" y="130" width="80" height="105" as="geometry"/>
                </mxCell>
                <mxCell id="53" value="" style="edgeStyle=none;html=1;" parent="1" source="17" target="12" edge="1">
                    <mxGeometry relative="1" as="geometry"/>
                </mxCell>
                <mxCell id="17" value="print&lt;br&gt;msg" style="shape=parallelogram;perimeter=parallelogramPerimeter;whiteSpace=wrap;html=1;fixedSize=1;" parent="1" vertex="1">
                    <mxGeometry x="368.5" y="670" width="120" height="40" as="geometry"/>
                </mxCell>
                <mxCell id="22" value="" style="edgeStyle=none;html=1;" parent="1" source="18" target="21" edge="1">
                    <mxGeometry relative="1" as="geometry"/>
                </mxCell>
                <mxCell id="18" value="read&lt;br&gt;option_menu" style="shape=parallelogram;perimeter=parallelogramPerimeter;whiteSpace=wrap;html=1;fixedSize=1;" parent="1" vertex="1">
                    <mxGeometry x="368" y="210" width="120" height="40" as="geometry"/>
                </mxCell>
                <mxCell id="25" value="" style="edgeStyle=none;html=1;entryX=0.5;entryY=0;entryDx=0;entryDy=0;exitX=0.5;exitY=1;exitDx=0;exitDy=0;" parent="1" source="21" target="37" edge="1">
                    <mxGeometry relative="1" as="geometry">
                        <mxPoint x="428.5" y="450" as="targetPoint"/>
                        <Array as="points">
                            <mxPoint x="429" y="410"/>
                            <mxPoint x="348" y="410"/>
                        </Array>
                    </mxGeometry>
                </mxCell>
                <mxCell id="21" value="option_menu" style="rhombus;whiteSpace=wrap;html=1;" parent="1" vertex="1">
                    <mxGeometry x="386" y="290" width="85" height="90" as="geometry"/>
                </mxCell>
                <mxCell id="32" value="1" style="text;html=1;align=center;verticalAlign=middle;resizable=0;points=[];autosize=1;strokeColor=none;fillColor=none;" parent="1" vertex="1">
                    <mxGeometry x="203" y="415" width="30" height="30" as="geometry"/>
                </mxCell>
                <mxCell id="33" value="2" style="text;html=1;align=center;verticalAlign=middle;resizable=0;points=[];autosize=1;strokeColor=none;fillColor=none;" parent="1" vertex="1">
                    <mxGeometry x="356" y="415" width="30" height="30" as="geometry"/>
                </mxCell>
                <mxCell id="34" value="otro" style="text;html=1;align=center;verticalAlign=middle;resizable=0;points=[];autosize=1;strokeColor=none;fillColor=none;" parent="1" vertex="1">
                    <mxGeometry x="657.5" y="415" width="40" height="30" as="geometry"/>
                </mxCell>
                <mxCell id="46" value="" style="edgeStyle=none;html=1;" parent="1" source="36" target="45" edge="1">
                    <mxGeometry relative="1" as="geometry"/>
                </mxCell>
                <mxCell id="36" value="convert_c_to_f&lt;br&gt;(temp_celsius)" style="shape=process;whiteSpace=wrap;html=1;backgroundOutline=1;" parent="1" vertex="1">
                    <mxGeometry x="143" y="450" width="120" height="50" as="geometry"/>
                </mxCell>
                <mxCell id="48" value="" style="edgeStyle=none;html=1;entryX=0.5;entryY=0;entryDx=0;entryDy=0;" parent="1" source="37" target="47" edge="1">
                    <mxGeometry relative="1" as="geometry"/>
                </mxCell>
                <mxCell id="37" value="convert_f_to_c&lt;br&gt;(temp_fahr)" style="shape=process;whiteSpace=wrap;html=1;backgroundOutline=1;" parent="1" vertex="1">
                    <mxGeometry x="288" y="450" width="120" height="50" as="geometry"/>
                </mxCell>
                <mxCell id="38" value="" style="edgeStyle=none;html=1;exitX=0.5;exitY=1;exitDx=0;exitDy=0;entryX=0.5;entryY=0;entryDx=0;entryDy=0;" parent="1" source="21" target="41" edge="1">
                    <mxGeometry relative="1" as="geometry">
                        <mxPoint x="438.5" y="390" as="sourcePoint"/>
                        <mxPoint x="503" y="450" as="targetPoint"/>
                        <Array as="points">
                            <mxPoint x="429" y="410"/>
                            <mxPoint x="503" y="410"/>
                        </Array>
                    </mxGeometry>
                </mxCell>
                <mxCell id="40" value="0" style="text;html=1;align=center;verticalAlign=middle;resizable=0;points=[];autosize=1;strokeColor=none;fillColor=none;" parent="1" vertex="1">
                    <mxGeometry x="503" y="415" width="30" height="30" as="geometry"/>
                </mxCell>
                <mxCell id="41" value="msg =&lt;br&gt;&quot;Gracias por usar &lt;br&gt;el sistema de conversión.&quot;" style="whiteSpace=wrap;html=1;" parent="1" vertex="1">
                    <mxGeometry x="428" y="450" width="150" height="50" as="geometry"/>
                </mxCell>
                <mxCell id="42" value="msg =&amp;nbsp;&lt;br&gt;&quot;Opción incorrecta.&quot;" style="whiteSpace=wrap;html=1;" parent="1" vertex="1">
                    <mxGeometry x="593" y="450" width="120" height="50" as="geometry"/>
                </mxCell>
                <mxCell id="43" value="" style="edgeStyle=none;html=1;entryX=0.5;entryY=0;entryDx=0;entryDy=0;exitX=0.5;exitY=1;exitDx=0;exitDy=0;" parent="1" target="36" edge="1">
                    <mxGeometry relative="1" as="geometry">
                        <mxPoint x="427.5" y="380" as="sourcePoint"/>
                        <mxPoint x="357" y="450" as="targetPoint"/>
                        <Array as="points">
                            <mxPoint x="428" y="410"/>
                            <mxPoint x="203" y="410"/>
                        </Array>
                    </mxGeometry>
                </mxCell>
                <mxCell id="44" value="" style="edgeStyle=none;html=1;exitX=0.5;exitY=1;exitDx=0;exitDy=0;entryX=0.5;entryY=0;entryDx=0;entryDy=0;" parent="1" target="42" edge="1">
                    <mxGeometry relative="1" as="geometry">
                        <mxPoint x="428" y="380" as="sourcePoint"/>
                        <mxPoint x="502.5" y="450" as="targetPoint"/>
                        <Array as="points">
                            <mxPoint x="428.5" y="410"/>
                            <mxPoint x="653" y="410"/>
                        </Array>
                    </mxGeometry>
                </mxCell>
                <mxCell id="45" value="msg =&lt;br&gt;f&quot;{temp_celsius} °C equivalen a {temp_fahr} °F&quot;" style="whiteSpace=wrap;html=1;" parent="1" vertex="1">
                    <mxGeometry x="133" y="530" width="140" height="60" as="geometry"/>
                </mxCell>
                <mxCell id="47" value="msg =&lt;br&gt;f&quot;{temp_fahr} °F equivalen a {temp_celsius} °C&quot;" style="whiteSpace=wrap;html=1;" parent="1" vertex="1">
                    <mxGeometry x="293" y="530" width="110" height="60" as="geometry"/>
                </mxCell>
                <mxCell id="49" value="" style="endArrow=classic;html=1;exitX=0.5;exitY=1;exitDx=0;exitDy=0;entryX=0.5;entryY=0;entryDx=0;entryDy=0;" parent="1" source="45" target="17" edge="1">
                    <mxGeometry width="50" height="50" relative="1" as="geometry">
                        <mxPoint x="423" y="470" as="sourcePoint"/>
                        <mxPoint x="433" y="650" as="targetPoint"/>
                        <Array as="points">
                            <mxPoint x="203" y="610"/>
                            <mxPoint x="428" y="610"/>
                        </Array>
                    </mxGeometry>
                </mxCell>
                <mxCell id="50" value="" style="endArrow=classic;html=1;exitX=0.5;exitY=1;exitDx=0;exitDy=0;entryX=0.5;entryY=0;entryDx=0;entryDy=0;" parent="1" source="47" target="17" edge="1">
                    <mxGeometry width="50" height="50" relative="1" as="geometry">
                        <mxPoint x="364" y="600" as="sourcePoint"/>
                        <mxPoint x="433" y="650" as="targetPoint"/>
                        <Array as="points">
                            <mxPoint x="348" y="610"/>
                            <mxPoint x="428" y="610"/>
                        </Array>
                    </mxGeometry>
                </mxCell>
                <mxCell id="51" value="" style="endArrow=classic;html=1;exitX=0.5;exitY=1;exitDx=0;exitDy=0;entryX=0.5;entryY=0;entryDx=0;entryDy=0;" parent="1" source="41" target="17" edge="1">
                    <mxGeometry width="50" height="50" relative="1" as="geometry">
                        <mxPoint x="423" y="470" as="sourcePoint"/>
                        <mxPoint x="433" y="650" as="targetPoint"/>
                        <Array as="points">
                            <mxPoint x="503" y="610"/>
                            <mxPoint x="428" y="610"/>
                        </Array>
                    </mxGeometry>
                </mxCell>
                <mxCell id="52" value="" style="endArrow=classic;html=1;entryX=0.5;entryY=0;entryDx=0;entryDy=0;" parent="1" source="42" target="17" edge="1">
                    <mxGeometry width="50" height="50" relative="1" as="geometry">
                        <mxPoint x="653" y="500" as="sourcePoint"/>
                        <mxPoint x="433" y="650" as="targetPoint"/>
                        <Array as="points">
                            <mxPoint x="653" y="610"/>
                            <mxPoint x="428" y="610"/>
                        </Array>
                    </mxGeometry>
                </mxCell>
                <mxCell id="79" value="While" style="text;html=1;align=center;verticalAlign=middle;resizable=0;points=[];autosize=1;strokeColor=none;fillColor=none;" parent="1" vertex="1">
                    <mxGeometry x="108" y="360" width="50" height="30" as="geometry"/>
                </mxCell>
                <mxCell id="80" value="option_menu != 0" style="text;html=1;align=center;verticalAlign=middle;resizable=0;points=[];autosize=1;strokeColor=none;fillColor=none;" parent="1" vertex="1">
                    <mxGeometry x="623" y="360" width="120" height="30" as="geometry"/>
                </mxCell>
                <mxCell id="DhJFXOIkZizIEhxYs8IX-80" style="edgeStyle=none;html=1;exitX=0;exitY=0.25;exitDx=0;exitDy=0;entryX=0;entryY=0;entryDx=100;entryDy=65;entryPerimeter=0;" parent="1" source="DhJFXOIkZizIEhxYs8IX-81" target="DhJFXOIkZizIEhxYs8IX-84" edge="1">
                    <mxGeometry relative="1" as="geometry"/>
                </mxCell>
                <mxCell id="DhJFXOIkZizIEhxYs8IX-81" value="" style="rounded=0;whiteSpace=wrap;html=1;" parent="1" vertex="1">
                    <mxGeometry x="150" y="1260" width="215" height="370" as="geometry"/>
                </mxCell>
                <mxCell id="DhJFXOIkZizIEhxYs8IX-82" value="" style="edgeStyle=none;html=1;" parent="1" source="DhJFXOIkZizIEhxYs8IX-83" target="DhJFXOIkZizIEhxYs8IX-89" edge="1">
                    <mxGeometry relative="1" as="geometry"/>
                </mxCell>
                <mxCell id="DhJFXOIkZizIEhxYs8IX-83" value="temp_fahr = &lt;br&gt;(9/5) * cent_temp + 32" style="whiteSpace=wrap;html=1;" parent="1" vertex="1">
                    <mxGeometry x="184" y="1460" width="150" height="40" as="geometry"/>
                </mxCell>
                <mxCell id="DhJFXOIkZizIEhxYs8IX-84" value="Function:&lt;br&gt;convert_c_to_f" style="shape=note;whiteSpace=wrap;html=1;backgroundOutline=1;darkOpacity=0.05;" parent="1" vertex="1">
                    <mxGeometry x="20" y="1300" width="100" height="100" as="geometry"/>
                </mxCell>
                <mxCell id="DhJFXOIkZizIEhxYs8IX-85" value="" style="edgeStyle=none;html=1;" parent="1" source="DhJFXOIkZizIEhxYs8IX-86" target="DhJFXOIkZizIEhxYs8IX-88" edge="1">
                    <mxGeometry relative="1" as="geometry"/>
                </mxCell>
                <mxCell id="DhJFXOIkZizIEhxYs8IX-86" value="end" style="ellipse;whiteSpace=wrap;html=1;" parent="1" vertex="1">
                    <mxGeometry x="225" y="1290" width="68" height="50" as="geometry"/>
                </mxCell>
                <mxCell id="DhJFXOIkZizIEhxYs8IX-87" value="" style="edgeStyle=none;html=1;" parent="1" source="DhJFXOIkZizIEhxYs8IX-88" target="DhJFXOIkZizIEhxYs8IX-83" edge="1">
                    <mxGeometry relative="1" as="geometry"/>
                </mxCell>
                <mxCell id="DhJFXOIkZizIEhxYs8IX-88" value="read&lt;br&gt;p_temp_celsius" style="shape=parallelogram;perimeter=parallelogramPerimeter;whiteSpace=wrap;html=1;fixedSize=1;" parent="1" vertex="1">
                    <mxGeometry x="199" y="1380" width="120" height="40" as="geometry"/>
                </mxCell>
                <mxCell id="DhJFXOIkZizIEhxYs8IX-89" value="end" style="ellipse;whiteSpace=wrap;html=1;" parent="1" vertex="1">
                    <mxGeometry x="225" y="1540" width="68" height="50" as="geometry"/>
                </mxCell>
                <mxCell id="DhJFXOIkZizIEhxYs8IX-90" style="edgeStyle=none;html=1;exitX=1;exitY=0.25;exitDx=0;exitDy=0;entryX=0;entryY=0.5;entryDx=0;entryDy=0;entryPerimeter=0;" parent="1" source="DhJFXOIkZizIEhxYs8IX-91" target="DhJFXOIkZizIEhxYs8IX-94" edge="1">
                    <mxGeometry relative="1" as="geometry"/>
                </mxCell>
                <mxCell id="DhJFXOIkZizIEhxYs8IX-91" value="" style="rounded=0;whiteSpace=wrap;html=1;" parent="1" vertex="1">
                    <mxGeometry x="485.5" y="1260" width="215" height="370" as="geometry"/>
                </mxCell>
                <mxCell id="DhJFXOIkZizIEhxYs8IX-92" value="" style="edgeStyle=none;html=1;" parent="1" source="DhJFXOIkZizIEhxYs8IX-93" target="DhJFXOIkZizIEhxYs8IX-99" edge="1">
                    <mxGeometry relative="1" as="geometry"/>
                </mxCell>
                <mxCell id="DhJFXOIkZizIEhxYs8IX-93" value="temp_celsius = &lt;br&gt;(p_temp_fahr - 32) * (5/9)" style="whiteSpace=wrap;html=1;" parent="1" vertex="1">
                    <mxGeometry x="519.5" y="1460" width="150" height="40" as="geometry"/>
                </mxCell>
                <mxCell id="DhJFXOIkZizIEhxYs8IX-94" value="Function:&lt;br&gt;convert_f_to_c" style="shape=note;whiteSpace=wrap;html=1;backgroundOutline=1;darkOpacity=0.05;" parent="1" vertex="1">
                    <mxGeometry x="730" y="1300" width="100" height="100" as="geometry"/>
                </mxCell>
                <mxCell id="DhJFXOIkZizIEhxYs8IX-95" value="" style="edgeStyle=none;html=1;" parent="1" source="DhJFXOIkZizIEhxYs8IX-96" target="DhJFXOIkZizIEhxYs8IX-98" edge="1">
                    <mxGeometry relative="1" as="geometry"/>
                </mxCell>
                <mxCell id="DhJFXOIkZizIEhxYs8IX-96" value="end" style="ellipse;whiteSpace=wrap;html=1;" parent="1" vertex="1">
                    <mxGeometry x="560.5" y="1290" width="68" height="50" as="geometry"/>
                </mxCell>
                <mxCell id="DhJFXOIkZizIEhxYs8IX-97" value="" style="edgeStyle=none;html=1;" parent="1" source="DhJFXOIkZizIEhxYs8IX-98" target="DhJFXOIkZizIEhxYs8IX-93" edge="1">
                    <mxGeometry relative="1" as="geometry"/>
                </mxCell>
                <mxCell id="DhJFXOIkZizIEhxYs8IX-98" value="read&lt;br&gt;p_temp_fahr" style="shape=parallelogram;perimeter=parallelogramPerimeter;whiteSpace=wrap;html=1;fixedSize=1;" parent="1" vertex="1">
                    <mxGeometry x="534.5" y="1380" width="120" height="40" as="geometry"/>
                </mxCell>
                <mxCell id="DhJFXOIkZizIEhxYs8IX-99" value="end" style="ellipse;whiteSpace=wrap;html=1;" parent="1" vertex="1">
                    <mxGeometry x="560.5" y="1540" width="68" height="50" as="geometry"/>
                </mxCell>
                <mxCell id="DhJFXOIkZizIEhxYs8IX-100" value="Diagramas de flujo - funciones" style="shape=note;whiteSpace=wrap;html=1;backgroundOutline=1;darkOpacity=0.05;" parent="1" vertex="1">
                    <mxGeometry x="20" y="1140" width="100" height="100" as="geometry"/>
                </mxCell>
                <mxCell id="rMtNd8o6MITVNhLoF3EU-80" value="" style="rounded=0;whiteSpace=wrap;html=1;" parent="1" vertex="1">
                    <mxGeometry x="108" y="2540" width="635" height="250" as="geometry"/>
                </mxCell>
                <mxCell id="rMtNd8o6MITVNhLoF3EU-81" value="" style="edgeStyle=none;html=1;entryX=0.5;entryY=0;entryDx=0;entryDy=0;" parent="1" source="rMtNd8o6MITVNhLoF3EU-82" target="rMtNd8o6MITVNhLoF3EU-88" edge="1">
                    <mxGeometry relative="1" as="geometry">
                        <mxPoint x="428" y="2360" as="targetPoint"/>
                    </mxGeometry>
                </mxCell>
                <mxCell id="rMtNd8o6MITVNhLoF3EU-82" value="Inicio" style="ellipse;whiteSpace=wrap;html=1;" parent="1" vertex="1">
                    <mxGeometry x="394" y="2280" width="68" height="50" as="geometry"/>
                </mxCell>
                <mxCell id="rMtNd8o6MITVNhLoF3EU-83" value="Fin" style="ellipse;whiteSpace=wrap;html=1;" parent="1" vertex="1">
                    <mxGeometry x="394" y="2900" width="68" height="50" as="geometry"/>
                </mxCell>
                <mxCell id="rMtNd8o6MITVNhLoF3EU-84" value="Diagrama&lt;br&gt;explicativo" style="shape=note;whiteSpace=wrap;html=1;backgroundOutline=1;darkOpacity=0.05;" parent="1" vertex="1">
                    <mxGeometry x="108" y="2280" width="80" height="105" as="geometry"/>
                </mxCell>
                <mxCell id="rMtNd8o6MITVNhLoF3EU-85" value="" style="edgeStyle=none;html=1;" parent="1" source="rMtNd8o6MITVNhLoF3EU-86" target="rMtNd8o6MITVNhLoF3EU-83" edge="1">
                    <mxGeometry relative="1" as="geometry"/>
                </mxCell>
                <mxCell id="rMtNd8o6MITVNhLoF3EU-86" value="Imprimir el mensaje de la opción seleccionada" style="shape=parallelogram;perimeter=parallelogramPerimeter;whiteSpace=wrap;html=1;fixedSize=1;" parent="1" vertex="1">
                    <mxGeometry x="323" y="2820" width="210" height="40" as="geometry"/>
                </mxCell>
                <mxCell id="rMtNd8o6MITVNhLoF3EU-87" value="" style="edgeStyle=none;html=1;" parent="1" source="rMtNd8o6MITVNhLoF3EU-88" target="rMtNd8o6MITVNhLoF3EU-90" edge="1">
                    <mxGeometry relative="1" as="geometry"/>
                </mxCell>
                <mxCell id="rMtNd8o6MITVNhLoF3EU-88" value="Leer la opción para&amp;nbsp; la conversión de temperaturas" style="shape=parallelogram;perimeter=parallelogramPerimeter;whiteSpace=wrap;html=1;fixedSize=1;" parent="1" vertex="1">
                    <mxGeometry x="338" y="2360" width="180" height="60" as="geometry"/>
                </mxCell>
                <mxCell id="rMtNd8o6MITVNhLoF3EU-89" value="" style="edgeStyle=none;html=1;entryX=0.5;entryY=0;entryDx=0;entryDy=0;exitX=0.5;exitY=1;exitDx=0;exitDy=0;" parent="1" source="rMtNd8o6MITVNhLoF3EU-90" target="rMtNd8o6MITVNhLoF3EU-97" edge="1">
                    <mxGeometry relative="1" as="geometry">
                        <mxPoint x="428.5" y="2600" as="targetPoint"/>
                        <Array as="points">
                            <mxPoint x="429" y="2560"/>
                            <mxPoint x="348" y="2560"/>
                        </Array>
                    </mxGeometry>
                </mxCell>
                <mxCell id="rMtNd8o6MITVNhLoF3EU-90" value="Opciones &lt;br&gt;del menú" style="rhombus;whiteSpace=wrap;html=1;" parent="1" vertex="1">
                    <mxGeometry x="373" y="2450" width="110" height="80" as="geometry"/>
                </mxCell>
                <mxCell id="rMtNd8o6MITVNhLoF3EU-91" value="1" style="text;html=1;align=center;verticalAlign=middle;resizable=0;points=[];autosize=1;strokeColor=none;fillColor=none;" parent="1" vertex="1">
                    <mxGeometry x="203" y="2565" width="30" height="30" as="geometry"/>
                </mxCell>
                <mxCell id="rMtNd8o6MITVNhLoF3EU-92" value="2" style="text;html=1;align=center;verticalAlign=middle;resizable=0;points=[];autosize=1;strokeColor=none;fillColor=none;" parent="1" vertex="1">
                    <mxGeometry x="356" y="2565" width="30" height="30" as="geometry"/>
                </mxCell>
                <mxCell id="rMtNd8o6MITVNhLoF3EU-93" value="otro" style="text;html=1;align=center;verticalAlign=middle;resizable=0;points=[];autosize=1;strokeColor=none;fillColor=none;" parent="1" vertex="1">
                    <mxGeometry x="657.5" y="2565" width="40" height="30" as="geometry"/>
                </mxCell>
                <mxCell id="rMtNd8o6MITVNhLoF3EU-94" value="" style="edgeStyle=none;html=1;" parent="1" source="rMtNd8o6MITVNhLoF3EU-95" target="rMtNd8o6MITVNhLoF3EU-104" edge="1">
                    <mxGeometry relative="1" as="geometry"/>
                </mxCell>
                <mxCell id="rMtNd8o6MITVNhLoF3EU-95" value="Procedimiento que convierte de °C a °F" style="shape=process;whiteSpace=wrap;html=1;backgroundOutline=1;" parent="1" vertex="1">
                    <mxGeometry x="143" y="2600" width="120" height="50" as="geometry"/>
                </mxCell>
                <mxCell id="rMtNd8o6MITVNhLoF3EU-96" value="" style="edgeStyle=none;html=1;entryX=0.5;entryY=0;entryDx=0;entryDy=0;" parent="1" source="rMtNd8o6MITVNhLoF3EU-97" target="rMtNd8o6MITVNhLoF3EU-105" edge="1">
                    <mxGeometry relative="1" as="geometry"/>
                </mxCell>
                <mxCell id="rMtNd8o6MITVNhLoF3EU-97" value="Procedimiento que convierte de °F a °C" style="shape=process;whiteSpace=wrap;html=1;backgroundOutline=1;" parent="1" vertex="1">
                    <mxGeometry x="288" y="2600" width="120" height="50" as="geometry"/>
                </mxCell>
                <mxCell id="rMtNd8o6MITVNhLoF3EU-98" value="" style="edgeStyle=none;html=1;exitX=0.5;exitY=1;exitDx=0;exitDy=0;entryX=0.5;entryY=0;entryDx=0;entryDy=0;" parent="1" source="rMtNd8o6MITVNhLoF3EU-90" target="rMtNd8o6MITVNhLoF3EU-100" edge="1">
                    <mxGeometry relative="1" as="geometry">
                        <mxPoint x="438.5" y="2540" as="sourcePoint"/>
                        <mxPoint x="503" y="2600" as="targetPoint"/>
                        <Array as="points">
                            <mxPoint x="429" y="2560"/>
                            <mxPoint x="503" y="2560"/>
                        </Array>
                    </mxGeometry>
                </mxCell>
                <mxCell id="rMtNd8o6MITVNhLoF3EU-99" value="0" style="text;html=1;align=center;verticalAlign=middle;resizable=0;points=[];autosize=1;strokeColor=none;fillColor=none;" parent="1" vertex="1">
                    <mxGeometry x="503" y="2565" width="30" height="30" as="geometry"/>
                </mxCell>
                <mxCell id="rMtNd8o6MITVNhLoF3EU-100" value="Mensaje al concluir el uso del sistema" style="whiteSpace=wrap;html=1;" parent="1" vertex="1">
                    <mxGeometry x="428" y="2600" width="150" height="50" as="geometry"/>
                </mxCell>
                <mxCell id="rMtNd8o6MITVNhLoF3EU-101" value="Mensaje que informa que la opción es incorrecta." style="whiteSpace=wrap;html=1;" parent="1" vertex="1">
                    <mxGeometry x="593" y="2600" width="120" height="50" as="geometry"/>
                </mxCell>
                <mxCell id="rMtNd8o6MITVNhLoF3EU-102" value="" style="edgeStyle=none;html=1;entryX=0.5;entryY=0;entryDx=0;entryDy=0;exitX=0.5;exitY=1;exitDx=0;exitDy=0;" parent="1" target="rMtNd8o6MITVNhLoF3EU-95" edge="1">
                    <mxGeometry relative="1" as="geometry">
                        <mxPoint x="427.5" y="2530" as="sourcePoint"/>
                        <mxPoint x="357" y="2600" as="targetPoint"/>
                        <Array as="points">
                            <mxPoint x="428" y="2560"/>
                            <mxPoint x="203" y="2560"/>
                        </Array>
                    </mxGeometry>
                </mxCell>
                <mxCell id="rMtNd8o6MITVNhLoF3EU-103" value="" style="edgeStyle=none;html=1;exitX=0.5;exitY=1;exitDx=0;exitDy=0;entryX=0.5;entryY=0;entryDx=0;entryDy=0;" parent="1" target="rMtNd8o6MITVNhLoF3EU-101" edge="1">
                    <mxGeometry relative="1" as="geometry">
                        <mxPoint x="428" y="2530" as="sourcePoint"/>
                        <mxPoint x="502.5" y="2600" as="targetPoint"/>
                        <Array as="points">
                            <mxPoint x="428.5" y="2560"/>
                            <mxPoint x="653" y="2560"/>
                        </Array>
                    </mxGeometry>
                </mxCell>
                <mxCell id="rMtNd8o6MITVNhLoF3EU-104" value="Mensaje que indica el resultado del procedimiento de conversión de °C a °F" style="whiteSpace=wrap;html=1;" parent="1" vertex="1">
                    <mxGeometry x="133" y="2680" width="140" height="60" as="geometry"/>
                </mxCell>
                <mxCell id="rMtNd8o6MITVNhLoF3EU-105" value="Mensaje que indica el resultado del procedimiento de conversión de °F a °C" style="whiteSpace=wrap;html=1;" parent="1" vertex="1">
                    <mxGeometry x="283" y="2680" width="130" height="60" as="geometry"/>
                </mxCell>
                <mxCell id="rMtNd8o6MITVNhLoF3EU-106" value="" style="endArrow=classic;html=1;exitX=0.5;exitY=1;exitDx=0;exitDy=0;entryX=0.5;entryY=0;entryDx=0;entryDy=0;" parent="1" source="rMtNd8o6MITVNhLoF3EU-104" target="rMtNd8o6MITVNhLoF3EU-86" edge="1">
                    <mxGeometry width="50" height="50" relative="1" as="geometry">
                        <mxPoint x="423" y="2620" as="sourcePoint"/>
                        <mxPoint x="433" y="2800" as="targetPoint"/>
                        <Array as="points">
                            <mxPoint x="203" y="2760"/>
                            <mxPoint x="428" y="2760"/>
                        </Array>
                    </mxGeometry>
                </mxCell>
                <mxCell id="rMtNd8o6MITVNhLoF3EU-107" value="" style="endArrow=classic;html=1;exitX=0.5;exitY=1;exitDx=0;exitDy=0;entryX=0.5;entryY=0;entryDx=0;entryDy=0;" parent="1" source="rMtNd8o6MITVNhLoF3EU-105" target="rMtNd8o6MITVNhLoF3EU-86" edge="1">
                    <mxGeometry width="50" height="50" relative="1" as="geometry">
                        <mxPoint x="364" y="2750" as="sourcePoint"/>
                        <mxPoint x="433" y="2800" as="targetPoint"/>
                        <Array as="points">
                            <mxPoint x="348" y="2760"/>
                            <mxPoint x="428" y="2760"/>
                        </Array>
                    </mxGeometry>
                </mxCell>
                <mxCell id="rMtNd8o6MITVNhLoF3EU-108" value="" style="endArrow=classic;html=1;exitX=0.5;exitY=1;exitDx=0;exitDy=0;entryX=0.5;entryY=0;entryDx=0;entryDy=0;" parent="1" source="rMtNd8o6MITVNhLoF3EU-100" target="rMtNd8o6MITVNhLoF3EU-86" edge="1">
                    <mxGeometry width="50" height="50" relative="1" as="geometry">
                        <mxPoint x="423" y="2620" as="sourcePoint"/>
                        <mxPoint x="433" y="2800" as="targetPoint"/>
                        <Array as="points">
                            <mxPoint x="503" y="2760"/>
                            <mxPoint x="428" y="2760"/>
                        </Array>
                    </mxGeometry>
                </mxCell>
                <mxCell id="rMtNd8o6MITVNhLoF3EU-109" value="" style="endArrow=classic;html=1;entryX=0.5;entryY=0;entryDx=0;entryDy=0;" parent="1" source="rMtNd8o6MITVNhLoF3EU-101" target="rMtNd8o6MITVNhLoF3EU-86" edge="1">
                    <mxGeometry width="50" height="50" relative="1" as="geometry">
                        <mxPoint x="653" y="2650" as="sourcePoint"/>
                        <mxPoint x="433" y="2800" as="targetPoint"/>
                        <Array as="points">
                            <mxPoint x="653" y="2760"/>
                            <mxPoint x="428" y="2760"/>
                        </Array>
                    </mxGeometry>
                </mxCell>
                <mxCell id="rMtNd8o6MITVNhLoF3EU-110" value="&lt;h1 style=&quot;text-align: center;&quot;&gt;&lt;/h1&gt;&lt;span style=&quot;text-align: center;&quot;&gt;Mientras que la opción del menú&amp;nbsp;&lt;/span&gt;&lt;span style=&quot;text-align: center;&quot;&gt;no sea 0 el sistema&amp;nbsp;&lt;/span&gt;&lt;span style=&quot;text-align: center;&quot;&gt;ejecuta las opciones&lt;/span&gt;" style="text;html=1;strokeColor=none;fillColor=none;spacing=5;spacingTop=-20;whiteSpace=wrap;overflow=hidden;rounded=0;" parent="1" vertex="1">
                    <mxGeometry x="568" y="2480" width="175" height="60" as="geometry"/>
                </mxCell>
                <mxCell id="P3QsOzCwL3pZbPPS4Ut1-80" style="edgeStyle=none;html=1;exitX=0;exitY=0.25;exitDx=0;exitDy=0;entryX=0;entryY=0;entryDx=100;entryDy=65;entryPerimeter=0;" parent="1" source="P3QsOzCwL3pZbPPS4Ut1-81" target="P3QsOzCwL3pZbPPS4Ut1-84" edge="1">
                    <mxGeometry relative="1" as="geometry"/>
                </mxCell>
                <mxCell id="P3QsOzCwL3pZbPPS4Ut1-81" value="" style="rounded=0;whiteSpace=wrap;html=1;" parent="1" vertex="1">
                    <mxGeometry x="155" y="3510" width="215" height="370" as="geometry"/>
                </mxCell>
                <mxCell id="P3QsOzCwL3pZbPPS4Ut1-82" value="" style="edgeStyle=none;html=1;" parent="1" source="P3QsOzCwL3pZbPPS4Ut1-83" target="P3QsOzCwL3pZbPPS4Ut1-89" edge="1">
                    <mxGeometry relative="1" as="geometry"/>
                </mxCell>
                <mxCell id="P3QsOzCwL3pZbPPS4Ut1-83" value="Calcular la conversión de °C a °F" style="whiteSpace=wrap;html=1;" parent="1" vertex="1">
                    <mxGeometry x="189" y="3710" width="150" height="40" as="geometry"/>
                </mxCell>
                <mxCell id="P3QsOzCwL3pZbPPS4Ut1-84" value="Función:&lt;br&gt;convert_c_to_f" style="shape=note;whiteSpace=wrap;html=1;backgroundOutline=1;darkOpacity=0.05;" parent="1" vertex="1">
                    <mxGeometry x="25" y="3550" width="100" height="100" as="geometry"/>
                </mxCell>
                <mxCell id="P3QsOzCwL3pZbPPS4Ut1-85" value="" style="edgeStyle=none;html=1;" parent="1" source="P3QsOzCwL3pZbPPS4Ut1-86" target="P3QsOzCwL3pZbPPS4Ut1-88" edge="1">
                    <mxGeometry relative="1" as="geometry"/>
                </mxCell>
                <mxCell id="P3QsOzCwL3pZbPPS4Ut1-86" value="Inicio" style="ellipse;whiteSpace=wrap;html=1;" parent="1" vertex="1">
                    <mxGeometry x="230" y="3540" width="68" height="50" as="geometry"/>
                </mxCell>
                <mxCell id="P3QsOzCwL3pZbPPS4Ut1-87" value="" style="edgeStyle=none;html=1;" parent="1" source="P3QsOzCwL3pZbPPS4Ut1-88" target="P3QsOzCwL3pZbPPS4Ut1-83" edge="1">
                    <mxGeometry relative="1" as="geometry"/>
                </mxCell>
                <mxCell id="P3QsOzCwL3pZbPPS4Ut1-88" value="Leer la temperatura en °C" style="shape=parallelogram;perimeter=parallelogramPerimeter;whiteSpace=wrap;html=1;fixedSize=1;" parent="1" vertex="1">
                    <mxGeometry x="175" y="3630" width="180" height="40" as="geometry"/>
                </mxCell>
                <mxCell id="P3QsOzCwL3pZbPPS4Ut1-89" value="Fin" style="ellipse;whiteSpace=wrap;html=1;" parent="1" vertex="1">
                    <mxGeometry x="230" y="3790" width="68" height="50" as="geometry"/>
                </mxCell>
                <mxCell id="P3QsOzCwL3pZbPPS4Ut1-90" style="edgeStyle=none;html=1;exitX=1;exitY=0.25;exitDx=0;exitDy=0;entryX=0;entryY=0.5;entryDx=0;entryDy=0;entryPerimeter=0;" parent="1" source="P3QsOzCwL3pZbPPS4Ut1-91" target="P3QsOzCwL3pZbPPS4Ut1-94" edge="1">
                    <mxGeometry relative="1" as="geometry"/>
                </mxCell>
                <mxCell id="P3QsOzCwL3pZbPPS4Ut1-91" value="" style="rounded=0;whiteSpace=wrap;html=1;" parent="1" vertex="1">
                    <mxGeometry x="490.5" y="3510" width="215" height="370" as="geometry"/>
                </mxCell>
                <mxCell id="P3QsOzCwL3pZbPPS4Ut1-92" value="" style="edgeStyle=none;html=1;" parent="1" source="P3QsOzCwL3pZbPPS4Ut1-93" target="P3QsOzCwL3pZbPPS4Ut1-99" edge="1">
                    <mxGeometry relative="1" as="geometry"/>
                </mxCell>
                <mxCell id="P3QsOzCwL3pZbPPS4Ut1-93" value="Calcular la conversión de °F a °C" style="whiteSpace=wrap;html=1;" parent="1" vertex="1">
                    <mxGeometry x="524.5" y="3710" width="150" height="40" as="geometry"/>
                </mxCell>
                <mxCell id="P3QsOzCwL3pZbPPS4Ut1-94" value="Función:&lt;br&gt;convert_f_to_c" style="shape=note;whiteSpace=wrap;html=1;backgroundOutline=1;darkOpacity=0.05;" parent="1" vertex="1">
                    <mxGeometry x="735" y="3550" width="100" height="100" as="geometry"/>
                </mxCell>
                <mxCell id="P3QsOzCwL3pZbPPS4Ut1-95" value="" style="edgeStyle=none;html=1;" parent="1" source="P3QsOzCwL3pZbPPS4Ut1-96" target="P3QsOzCwL3pZbPPS4Ut1-98" edge="1">
                    <mxGeometry relative="1" as="geometry"/>
                </mxCell>
                <mxCell id="P3QsOzCwL3pZbPPS4Ut1-96" value="Inicio" style="ellipse;whiteSpace=wrap;html=1;" parent="1" vertex="1">
                    <mxGeometry x="565.5" y="3540" width="68" height="50" as="geometry"/>
                </mxCell>
                <mxCell id="P3QsOzCwL3pZbPPS4Ut1-97" value="" style="edgeStyle=none;html=1;" parent="1" source="P3QsOzCwL3pZbPPS4Ut1-98" target="P3QsOzCwL3pZbPPS4Ut1-93" edge="1">
                    <mxGeometry relative="1" as="geometry"/>
                </mxCell>
                <mxCell id="P3QsOzCwL3pZbPPS4Ut1-98" value="Leer la temperatura en °F" style="shape=parallelogram;perimeter=parallelogramPerimeter;whiteSpace=wrap;html=1;fixedSize=1;" parent="1" vertex="1">
                    <mxGeometry x="515" y="3630" width="170" height="40" as="geometry"/>
                </mxCell>
                <mxCell id="P3QsOzCwL3pZbPPS4Ut1-99" value="Fin" style="ellipse;whiteSpace=wrap;html=1;" parent="1" vertex="1">
                    <mxGeometry x="565.5" y="3790" width="68" height="50" as="geometry"/>
                </mxCell>
                <mxCell id="P3QsOzCwL3pZbPPS4Ut1-100" value="Diagramas explicativos - funciones" style="shape=note;whiteSpace=wrap;html=1;backgroundOutline=1;darkOpacity=0.05;" parent="1" vertex="1">
                    <mxGeometry x="15" y="3360" width="150" height="100" as="geometry"/>
                </mxCell>
            </root>
        </mxGraphModel>
    </diagram>
</mxfile>